<svg width="40" height="40" viewBox="0 0 40 40" fill="none" xmlns="http://www.w3.org/2000/svg">
<path d="M19.9999 3.33331C22.1886 3.33331 24.3559 3.76441 26.378 4.60199C28.4001 5.43957 30.2374 6.66722 31.785 8.21487C33.3327 9.76251 34.5603 11.5998 35.3979 13.6219C36.2355 15.644 36.6666 17.8113 36.6666 20C36.6666 24.4203 34.9106 28.6595 31.785 31.7851C28.6594 34.9107 24.4202 36.6666 19.9999 36.6666C17.8112 36.6666 15.644 36.2355 13.6219 35.398C11.5998 34.5604 9.76245 33.3327 8.21481 31.7851C5.0892 28.6595 3.33325 24.4203 3.33325 20C3.33325 15.5797 5.0892 11.3405 8.21481 8.21487C11.3404 5.08926 15.5796 3.33331 19.9999 3.33331ZM19.9999 6.66665C16.4637 6.66665 13.0723 8.0714 10.5718 10.5719C8.07134 13.0724 6.66659 16.4638 6.66659 20C6.66659 23.5362 8.07134 26.9276 10.5718 29.4281C13.0723 31.9286 16.4637 33.3333 19.9999 33.3333C23.5361 33.3333 26.9275 31.9286 29.428 29.4281C31.9285 26.9276 33.3333 23.5362 33.3333 20C33.3333 16.4638 31.9285 13.0724 29.428 10.5719C26.9275 8.0714 23.5361 6.66665 19.9999 6.66665ZM26.6666 16.6666V28.3333C26.6666 28.7753 26.491 29.1993 26.1784 29.5118C25.8659 29.8244 25.4419 30 24.9999 30H14.9999C14.5579 30 14.134 29.8244 13.8214 29.5118C13.5088 29.1993 13.3333 28.7753 13.3333 28.3333V16.6666H26.6666ZM22.4999 9.99998L24.1666 11.6666H28.3333V15H11.6666V11.6666H15.8333L17.4999 9.99998H22.4999Z" fill="#ef1011"/>
</svg>
