<svg width="25" height="24" viewBox="0 0 25 24" fill="none" xmlns="http://www.w3.org/2000/svg">
<path d="M0 4.5C0 2.84297 1.24349 1.5 2.77778 1.5H22.2222C23.7543 1.5 25 2.84297 25 4.5V19.5C25 21.1547 23.7543 22.5 22.2222 22.5H2.77778C1.24349 22.5 0 21.1547 0 19.5V4.5ZM6.94444 12C6.94444 11.1703 6.32378 10.5 5.55556 10.5C4.78733 10.5 4.16667 11.1703 4.16667 12C4.16667 12.8297 4.78733 13.5 5.55556 13.5C6.32378 13.5 6.94444 12.8297 6.94444 12ZM6.94444 7.5C6.94444 6.67031 6.32378 6 5.55556 6C4.78733 6 4.16667 6.67031 4.16667 7.5C4.16667 8.32969 4.78733 9 5.55556 9C6.32378 9 6.94444 8.32969 6.94444 7.5ZM6.94444 16.5C6.94444 15.6703 6.32378 15 5.55556 15C4.78733 15 4.16667 15.6703 4.16667 16.5C4.16667 17.3297 4.78733 18 5.55556 18C6.32378 18 6.94444 17.3297 6.94444 16.5ZM9.72222 6.375C9.14497 6.375 8.68056 6.87656 8.68056 7.5C8.68056 8.12344 9.14497 8.625 9.72222 8.625H19.4444C20.0217 8.625 20.4861 8.12344 20.4861 7.5C20.4861 6.87656 20.0217 6.375 19.4444 6.375H9.72222ZM9.72222 10.875C9.14497 10.875 8.68056 11.3766 8.68056 12C8.68056 12.6234 9.14497 13.125 9.72222 13.125H19.4444C20.0217 13.125 20.4861 12.6234 20.4861 12C20.4861 11.3766 20.0217 10.875 19.4444 10.875H9.72222ZM9.72222 15.375C9.14497 15.375 8.68056 15.8766 8.68056 16.5C8.68056 17.1234 9.14497 17.625 9.72222 17.625H19.4444C20.0217 17.625 20.4861 17.1234 20.4861 16.5C20.4861 15.8766 20.0217 15.375 19.4444 15.375H9.72222Z" fill="#787FA3"/>
</svg>
