<svg width="40" height="40" viewBox="0 0 40 40" fill="none" xmlns="http://www.w3.org/2000/svg">
<path d="M15 13.75V10.625C15 9.7962 15.3292 9.00134 15.9153 8.41529C16.5013 7.82924 17.2962 7.5 18.125 7.5H33.125C33.9538 7.5 34.7487 7.82924 35.3347 8.41529C35.9208 9.00134 36.25 9.7962 36.25 10.625V29.375C36.25 30.2038 35.9208 30.9987 35.3347 31.5847C34.7487 32.1708 33.9538 32.5 33.125 32.5H18.125C17.2962 32.5 16.5013 32.1708 15.9153 31.5847C15.3292 30.9987 15 30.2038 15 29.375V26.25M10 13.75L3.75 20L10 26.25M25.0781 20H3.75" stroke="#7D7A7A" stroke-width="2" stroke-linecap="round" stroke-linejoin="round"/>
</svg>
