<svg width="25" height="25" viewBox="0 0 25 25" fill="none" xmlns="http://www.w3.org/2000/svg">
<path d="M6.25 6.24998C6.25 5.97371 6.35975 5.70876 6.5551 5.51341C6.75045 5.31806 7.0154 5.20831 7.29167 5.20831H17.7083C17.9846 5.20831 18.2496 5.31806 18.4449 5.51341C18.6403 5.70876 18.75 5.97371 18.75 6.24998C18.75 6.52625 18.6403 6.7912 18.4449 6.98655C18.2496 7.1819 17.9846 7.29165 17.7083 7.29165H7.29167C7.0154 7.29165 6.75045 7.1819 6.5551 6.98655C6.35975 6.7912 6.25 6.52625 6.25 6.24998ZM6.25 10.4166C6.25 10.1404 6.35975 9.87543 6.5551 9.68008C6.75045 9.48473 7.0154 9.37498 7.29167 9.37498H17.7083C17.9846 9.37498 18.2496 9.48473 18.4449 9.68008C18.6403 9.87543 18.75 10.1404 18.75 10.4166C18.75 10.6929 18.6403 10.9579 18.4449 11.1532C18.2496 11.3486 17.9846 11.4583 17.7083 11.4583H7.29167C7.0154 11.4583 6.75045 11.3486 6.5551 11.1532C6.35975 10.9579 6.25 10.6929 6.25 10.4166ZM7.29167 13.5416C7.0154 13.5416 6.75045 13.6514 6.5551 13.8467C6.35975 14.0421 6.25 14.307 6.25 14.5833C6.25 14.8596 6.35975 15.1245 6.5551 15.3199C6.75045 15.5152 7.0154 15.625 7.29167 15.625H17.7083C17.9846 15.625 18.2496 15.5152 18.4449 15.3199C18.6403 15.1245 18.75 14.8596 18.75 14.5833C18.75 14.307 18.6403 14.0421 18.4449 13.8467C18.2496 13.6514 17.9846 13.5416 17.7083 13.5416H7.29167ZM6.25 18.75C6.25 18.4737 6.35975 18.2088 6.5551 18.0134C6.75045 17.8181 7.0154 17.7083 7.29167 17.7083H11.4583C11.7346 17.7083 11.9996 17.8181 12.1949 18.0134C12.3903 18.2088 12.5 18.4737 12.5 18.75C12.5 19.0262 12.3903 19.2912 12.1949 19.4865C11.9996 19.6819 11.7346 19.7916 11.4583 19.7916H7.29167C7.0154 19.7916 6.75045 19.6819 6.5551 19.4865C6.35975 19.2912 6.25 19.0262 6.25 18.75Z" fill="#787FA3"/>
<path fill-rule="evenodd" clip-rule="evenodd" d="M2.08331 4.16666C2.08331 3.33785 2.41255 2.543 2.9986 1.95695C3.58466 1.3709 4.37951 1.04166 5.20831 1.04166H19.7916C20.6204 1.04166 21.4153 1.3709 22.0014 1.95695C22.5874 2.543 22.9166 3.33785 22.9166 4.16666V20.8333C22.9166 21.6621 22.5874 22.457 22.0014 23.043C21.4153 23.6291 20.6204 23.9583 19.7916 23.9583H5.20831C4.37951 23.9583 3.58466 23.6291 2.9986 23.043C2.41255 22.457 2.08331 21.6621 2.08331 20.8333V4.16666ZM5.20831 3.12499H19.7916C20.0679 3.12499 20.3329 3.23474 20.5282 3.43009C20.7236 3.62544 20.8333 3.89039 20.8333 4.16666V20.8333C20.8333 21.1096 20.7236 21.3745 20.5282 21.5699C20.3329 21.7652 20.0679 21.875 19.7916 21.875H5.20831C4.93205 21.875 4.66709 21.7652 4.47174 21.5699C4.27639 21.3745 4.16665 21.1096 4.16665 20.8333V4.16666C4.16665 3.89039 4.27639 3.62544 4.47174 3.43009C4.66709 3.23474 4.93205 3.12499 5.20831 3.12499Z" fill="#787FA3"/>
</svg>
