<svg width="40" height="40" viewBox="0 0 40 40" fill="none" xmlns="http://www.w3.org/2000/svg">
<path d="M26.6434 6.66668C26.5409 5.74999 26.1042 4.90324 25.4167 4.2883C24.7292 3.67336 23.8391 3.33337 22.9167 3.33334H17.0834C16.161 3.33337 15.271 3.67336 14.5835 4.2883C13.896 4.90324 13.4592 5.74999 13.3567 6.66668H10.4167C9.42219 6.66668 8.46836 7.06177 7.7651 7.76503C7.06184 8.46829 6.66675 9.42211 6.66675 10.4167V32.9167C6.66675 33.9112 7.06184 34.8651 7.7651 35.5683C8.46836 36.2716 9.42219 36.6667 10.4167 36.6667H18.3351C18.3232 36.3339 18.3585 36.0012 18.4401 35.6783L18.8184 34.1667H10.4167C10.0852 34.1667 9.76728 34.035 9.53286 33.8006C9.29844 33.5661 9.16675 33.2482 9.16675 32.9167V10.4167C9.16675 10.0852 9.29844 9.76721 9.53286 9.53279C9.76728 9.29837 10.0852 9.16668 10.4167 9.16668H13.9651C14.6384 10.1717 15.7834 10.8333 17.0834 10.8333H22.9167C24.2167 10.8333 25.3617 10.1717 26.0351 9.16668H29.5834C29.9149 9.16668 30.2329 9.29837 30.4673 9.53279C30.7017 9.76721 30.8334 10.0852 30.8334 10.4167V19.7667C31.5617 19.1 32.4267 18.6667 33.3334 18.465V10.4167C33.3334 9.92422 33.2364 9.43658 33.048 8.98161C32.8595 8.52664 32.5833 8.11325 32.2351 7.76503C31.8868 7.41681 31.4734 7.14058 31.0185 6.95213C30.5635 6.76367 30.0759 6.66668 29.5834 6.66668H26.6434ZM26.6584 6.82668L26.6667 7.08334C26.6667 6.99668 26.6634 6.91168 26.6584 6.82668ZM17.0834 5.83334H22.9167C23.2483 5.83334 23.5662 5.96504 23.8006 6.19946C24.0351 6.43388 24.1667 6.75182 24.1667 7.08334C24.1667 7.41486 24.0351 7.73281 23.8006 7.96723C23.5662 8.20165 23.2483 8.33334 22.9167 8.33334H17.0834C16.7519 8.33334 16.434 8.20165 16.1995 7.96723C15.9651 7.73281 15.8334 7.41486 15.8334 7.08334C15.8334 6.75182 15.9651 6.43388 16.1995 6.19946C16.434 5.96504 16.7519 5.83334 17.0834 5.83334ZM22.2601 28.3333H13.3334C13.0019 28.3333 12.684 28.465 12.4495 28.6995C12.2151 28.9339 12.0834 29.2518 12.0834 29.5833C12.0834 29.9149 12.2151 30.2328 12.4495 30.4672C12.684 30.7016 13.0019 30.8333 13.3334 30.8333H19.9717C20.2134 30.4517 20.4967 30.0967 20.8184 29.775L22.2601 28.3333ZM20.0001 24.1667H13.3334C13.0019 24.1667 12.684 24.035 12.4495 23.8006C12.2151 23.5661 12.0834 23.2482 12.0834 22.9167C12.0834 22.5852 12.2151 22.2672 12.4495 22.0328C12.684 21.7984 13.0019 21.6667 13.3334 21.6667H20.0001C20.3316 21.6667 20.6495 21.7984 20.884 22.0328C21.1184 22.2672 21.2501 22.5852 21.2501 22.9167C21.2501 23.2482 21.1184 23.5661 20.884 23.8006C20.6495 24.035 20.3316 24.1667 20.0001 24.1667ZM26.6667 17.5H13.3334C13.0019 17.5 12.684 17.3683 12.4495 17.1339C12.2151 16.8995 12.0834 16.5815 12.0834 16.25C12.0834 15.9185 12.2151 15.6005 12.4495 15.3661C12.684 15.1317 13.0019 15 13.3334 15H26.6667C26.9983 15 27.3162 15.1317 27.5506 15.3661C27.7851 15.6005 27.9167 15.9185 27.9167 16.25C27.9167 16.5815 27.7851 16.8995 27.5506 17.1339C27.3162 17.3683 26.9983 17.5 26.6667 17.5ZM31.8334 21.1167L21.9951 30.9533C21.4219 31.5268 21.0152 32.2451 20.8184 33.0317L20.0551 36.0833C19.9792 36.387 19.9832 36.7051 20.0668 37.0067C20.1504 37.3083 20.3107 37.5831 20.5321 37.8043C20.7535 38.0255 21.0284 38.1856 21.3301 38.269C21.6317 38.3524 21.9498 38.3562 22.2534 38.28L25.3034 37.5183C26.0908 37.3214 26.8098 36.9141 27.3834 36.34L37.2201 26.5033C37.9069 25.7835 38.2849 24.8235 38.2732 23.8285C38.2615 22.8336 37.8611 21.8828 37.1575 21.1792C36.454 20.4757 35.5031 20.0753 34.5082 20.0636C33.5133 20.0519 32.5533 20.4298 31.8334 21.1167Z" fill="black"/>
</svg>
