<svg width="40" height="40" viewBox="0 0 40 40" fill="none" xmlns="http://www.w3.org/2000/svg">
<path d="M19 13C19 12.7348 18.8946 12.4804 18.7071 12.2929C18.5196 12.1054 18.2652 12 18 12C17.7348 12 17.4804 12.1054 17.2929 12.2929C17.1054 12.4804 17 12.7348 17 13V17H13C12.7348 17 12.4804 17.1054 12.2929 17.2929C12.1054 17.4804 12 17.7348 12 18C12 18.2652 12.1054 18.5196 12.2929 18.7071C12.4804 18.8946 12.7348 19 13 19H17V23C17 23.2652 17.1054 23.5196 17.2929 23.7071C17.4804 23.8946 17.7348 24 18 24C18.2652 24 18.5196 23.8946 18.7071 23.7071C18.8946 23.5196 19 23.2652 19 23V19H23C23.2652 19 23.5196 18.8946 23.7071 18.7071C23.8946 18.5196 24 18.2652 24 18C24 17.7348 23.8946 17.4804 23.7071 17.2929C23.5196 17.1054 23.2652 17 23 17H19V13ZM9 4C7.67392 4 6.40215 4.52678 5.46447 5.46447C4.52678 6.40215 4 7.67392 4 9V27C4 28.3261 4.52678 29.5979 5.46447 30.5355C6.40215 31.4732 7.67392 32 9 32H27C28.3261 32 29.5979 31.4732 30.5355 30.5355C31.4732 29.5979 32 28.3261 32 27V9C32 7.67392 31.4732 6.40215 30.5355 5.46447C29.5979 4.52678 28.3261 4 27 4H9ZM6 9C6 8.20435 6.31607 7.44129 6.87868 6.87868C7.44129 6.31607 8.20435 6 9 6H27C27.7956 6 28.5587 6.31607 29.1213 6.87868C29.6839 7.44129 30 8.20435 30 9V27C30 27.7956 29.6839 28.5587 29.1213 29.1213C28.5587 29.6839 27.7956 30 27 30H9C8.20435 30 7.44129 29.6839 6.87868 29.1213C6.31607 28.5587 6 27.7956 6 27V9ZM15 36C13.1674 36.0026 11.4073 35.2842 10.1 34H29C30.3261 34 31.5979 33.4732 32.5355 32.5355C33.4732 31.5979 34 30.3261 34 29V10.1C35.238 11.364 36 13.092 36 15V29C36 30.8565 35.2625 32.637 33.9497 33.9497C32.637 35.2625 30.8565 36 29 36H15Z" fill="#0C1541"/>
</svg>
