<svg width="40" height="40" viewBox="0 0 40 40" fill="none" xmlns="http://www.w3.org/2000/svg">
<path d="M21.6667 23.3333H18.3333V13.3333H21.6667V23.3333ZM25 1.66666H15V4.99999H25V1.66666ZM8.33333 21.6667C8.33363 18.8162 9.37823 16.0646 11.2697 13.932C13.1611 11.7995 15.7683 10.4338 18.5983 10.0931C21.4284 9.75241 24.2852 10.4604 26.6287 12.0831C28.9722 13.7059 30.6399 16.131 31.3167 18.9L32.3167 17.9C32.85 17.3667 33.5 17.0167 34.1667 16.8333C33.6291 15.1923 32.799 13.6621 31.7167 12.3167L34.0833 9.94999C33.3333 9.09999 32.5833 8.33332 31.7333 7.59999L29.3667 9.99999C26.7833 7.89999 23.5333 6.66666 20 6.66666C16.0218 6.66666 12.2064 8.24701 9.3934 11.0601C6.58035 13.8731 5 17.6884 5 21.6667C5 29.3833 10.8333 35.7333 18.3333 36.5667V33.2C12.6833 32.3833 8.33333 27.55 8.33333 21.6667ZM21.6667 33.2667V36.6667H25.0667L35.2833 26.4667L31.8833 23.05L21.6667 33.2667ZM38.0833 22.45L35.8833 20.25C35.55 19.9167 35 19.9167 34.6833 20.25L33.05 21.8833L36.45 25.2833L38.0833 23.65C38.4167 23.3333 38.4167 22.7833 38.0833 22.45Z" fill="#000000"/>
</svg>
