<svg width="25" height="25" viewBox="0 0 25 25" fill="none" xmlns="http://www.w3.org/2000/svg">
<g clip-path="url(#clip0_29_35)">
<path d="M7.29168 0C7.01541 0 6.75046 0.109747 6.55511 0.305097C6.35976 0.500448 6.25001 0.765399 6.25001 1.04167C6.25001 1.31793 6.35976 1.58289 6.55511 1.77824C6.75046 1.97359 7.01541 2.08333 7.29168 2.08333H15.625C15.9013 2.08333 16.1662 1.97359 16.3616 1.77824C16.5569 1.58289 16.6667 1.31793 16.6667 1.04167C16.6667 0.765399 16.5569 0.500448 16.3616 0.305097C16.1662 0.109747 15.9013 0 15.625 0L7.29168 0ZM2.08334 13.5417C2.08334 11.0553 3.07106 8.67069 4.82922 6.91254C6.58737 5.15439 8.97194 4.16667 11.4583 4.16667C13.9447 4.16667 16.3293 5.15439 18.0875 6.91254C19.8456 8.67069 20.8333 11.0553 20.8333 13.5417C20.8333 16.0281 19.8456 18.4126 18.0875 20.1708C16.3293 21.9289 13.9447 22.9167 11.4583 22.9167C8.97194 22.9167 6.58737 21.9289 4.82922 20.1708C3.07106 18.4126 2.08334 16.0281 2.08334 13.5417ZM10.4167 15.625C10.4167 15.9013 10.5264 16.1662 10.7218 16.3616C10.9171 16.5569 11.1821 16.6667 11.4583 16.6667C11.7346 16.6667 11.9996 16.5569 12.1949 16.3616C12.3903 16.1662 12.5 15.9013 12.5 15.625V9.375C12.5 9.09873 12.3903 8.83378 12.1949 8.63843C11.9996 8.44308 11.7346 8.33333 11.4583 8.33333C11.1821 8.33333 10.9171 8.44308 10.7218 8.63843C10.5264 8.83378 10.4167 9.09873 10.4167 9.375V15.625ZM22.6125 8.02708C22.4174 8.22264 22.1527 8.33272 21.8765 8.33311C21.6003 8.3335 21.3352 8.22417 21.1396 8.02917L19.0521 5.95C18.9525 5.85405 18.873 5.73922 18.8182 5.61221C18.7634 5.4852 18.7345 5.34856 18.7331 5.21025C18.7317 5.07195 18.7579 4.93475 18.8101 4.80667C18.8623 4.67858 18.9395 4.56217 19.0371 4.46423C19.1348 4.36629 19.251 4.28878 19.3789 4.23623C19.5069 4.18367 19.644 4.15712 19.7823 4.15812C19.9206 4.15912 20.0573 4.18766 20.1845 4.24206C20.3116 4.29647 20.4267 4.37566 20.5229 4.475L22.6104 6.55417C22.806 6.74923 22.9161 7.01398 22.9165 7.29019C22.9168 7.56641 22.8075 7.83147 22.6125 8.02708Z" fill="#787FA3"/>
</g>
<defs>
<clipPath id="clip0_29_35">
<rect width="25" height="25" fill="white"/>
</clipPath>
</defs>
</svg>
